<svg width="129" height="115" viewBox="0 0 129 115" fill="none" xmlns="http://www.w3.org/2000/svg">
<path fill-rule="evenodd" clip-rule="evenodd" d="M40.1048 51.6094V25.3617H50.2285C61.2051 25.3617 66.6934 29.231 66.6934 36.9696C66.6934 41.5319 64.9505 45.1125 61.4647 47.7112C57.9789 50.31 40.1048 66.3359 40.1048 66.3359V51.6094ZM92.7258 9.85562C83.3809 3.61854 69.5488 0.5 51.2298 0.5H0.5V114.5H40.1048V86.8426C40.1048 86.8426 41.2996 75.4641 58.9512 75.4641C76.6027 75.4641 82.565 73.266 92.2808 66.3359C92.8411 65.9298 93.3851 65.5149 93.9129 65.0913L104.637 72.6278L80.8157 89.5199H97.5031L104.637 84.8346L111.813 89.5199H128.5L104.637 72.6278L127.958 56.3854H111.27L104.637 60.0697L100.769 57.8513C104.752 52.1665 106.743 45.408 106.743 37.576C106.743 25.3328 102.071 16.0927 92.7258 9.85562Z" fill="white"/>
</svg>
